<?xml version="1.0" encoding="UTF-8" standalone="no"?>
<!DOCTYPE svg PUBLIC "-//W3C//DTD SVG 1.1//EN"
 "http://www.w3.org/Graphics/SVG/1.1/DTD/svg11.dtd">
<!-- Generated by graphviz version 9.0.0 (20230911.1827)
 -->
<!-- Title: G Pages: 1 -->
<svg width="1027pt" height="137pt"
 viewBox="0.00 0.00 1026.67 137.40" xmlns="http://www.w3.org/2000/svg" xmlns:xlink="http://www.w3.org/1999/xlink">
<g id="graph0" class="graph" transform="scale(1 1) rotate(0) translate(4 133.4)">
<title>G</title>
<polygon fill="white" stroke="none" points="-4,4 -4,-133.4 1022.67,-133.4 1022.67,4 -4,4"/>
<!-- java.lang.classfile.AnnotationValue.OfString -->
<g id="node1" class="node">
<title>java.lang.classfile.AnnotationValue.OfString</title>
<g id="a_node1"><a xlink:href="../../../java/lang/classfile/AnnotationValue.OfString.html" xlink:title="java.lang.classfile.AnnotationValue.OfString">
<text text-anchor="middle" x="39.14" y="-18" font-family="DejaVuSans" font-size="12.00" fill="#e76f00">OfString</text>
</a>
</g>
</g>
<!-- java.lang.classfile.AnnotationValue.OfConstant -->
<g id="node2" class="node">
<title>java.lang.classfile.AnnotationValue.OfConstant</title>
<g id="a_node2"><a xlink:href="../../../java/lang/classfile/AnnotationValue.OfConstant.html" xlink:title="java.lang.classfile.AnnotationValue.OfConstant">
<text text-anchor="middle" x="495.14" y="-104.2" font-family="DejaVuSans" font-size="12.00" fill="#e76f00">OfConstant</text>
</a>
</g>
</g>
<!-- java.lang.classfile.AnnotationValue.OfString&#45;&gt;java.lang.classfile.AnnotationValue.OfConstant -->
<g id="edge1" class="edge">
<title>java.lang.classfile.AnnotationValue.OfString&#45;&gt;java.lang.classfile.AnnotationValue.OfConstant</title>
<path fill="none" stroke="#999999" stroke-width="2" d="M78.15,-37.55C84.44,-39.64 90.93,-41.61 97.14,-43.2 215.08,-73.3 356.49,-91.86 435.03,-100.66"/>
<polygon fill="#999999" stroke="#999999" stroke-width="2" points="444.66,-101.73 434.23,-105.1 442.06,-101.94 434.67,-101.13 434.72,-100.63 434.78,-100.13 442.17,-100.95 435.22,-96.16 444.66,-101.73"/>
</g>
<!-- java.lang.classfile.AnnotationValue.OfDouble -->
<g id="node3" class="node">
<title>java.lang.classfile.AnnotationValue.OfDouble</title>
<g id="a_node3"><a xlink:href="../../../java/lang/classfile/AnnotationValue.OfDouble.html" xlink:title="java.lang.classfile.AnnotationValue.OfDouble">
<text text-anchor="middle" x="157.14" y="-18" font-family="DejaVuSans" font-size="12.00" fill="#e76f00">OfDouble</text>
</a>
</g>
</g>
<!-- java.lang.classfile.AnnotationValue.OfDouble&#45;&gt;java.lang.classfile.AnnotationValue.OfConstant -->
<g id="edge2" class="edge">
<title>java.lang.classfile.AnnotationValue.OfDouble&#45;&gt;java.lang.classfile.AnnotationValue.OfConstant</title>
<path fill="none" stroke="#999999" stroke-width="2" d="M199.63,-37.55C205.81,-39.55 212.12,-41.5 218.14,-43.2 292.23,-64.16 378.92,-83.2 435.32,-94.87"/>
<polygon fill="#999999" stroke="#999999" stroke-width="2" points="444.84,-96.83 434.14,-99.22 442.23,-96.8 434.95,-95.3 435.05,-94.81 435.15,-94.32 442.43,-95.82 435.95,-90.41 444.84,-96.83"/>
</g>
<!-- java.lang.classfile.AnnotationValue.OfFloat -->
<g id="node4" class="node">
<title>java.lang.classfile.AnnotationValue.OfFloat</title>
<g id="a_node4"><a xlink:href="../../../java/lang/classfile/AnnotationValue.OfFloat.html" xlink:title="java.lang.classfile.AnnotationValue.OfFloat">
<text text-anchor="middle" x="272.14" y="-18" font-family="DejaVuSans" font-size="12.00" fill="#e76f00">OfFloat</text>
</a>
</g>
</g>
<!-- java.lang.classfile.AnnotationValue.OfFloat&#45;&gt;java.lang.classfile.AnnotationValue.OfConstant -->
<g id="edge3" class="edge">
<title>java.lang.classfile.AnnotationValue.OfFloat&#45;&gt;java.lang.classfile.AnnotationValue.OfConstant</title>
<path fill="none" stroke="#999999" stroke-width="2" d="M308.15,-36.36C314.16,-38.65 320.32,-41 326.14,-43.2 362.43,-56.95 403.15,-72.28 435.52,-84.44"/>
<polygon fill="#999999" stroke="#999999" stroke-width="2" points="444.76,-87.91 433.82,-88.6 442.18,-87.47 435.22,-84.86 435.4,-84.39 435.57,-83.92 442.54,-86.54 436.98,-80.18 444.76,-87.91"/>
</g>
<!-- java.lang.classfile.AnnotationValue.OfLong -->
<g id="node5" class="node">
<title>java.lang.classfile.AnnotationValue.OfLong</title>
<g id="a_node5"><a xlink:href="../../../java/lang/classfile/AnnotationValue.OfLong.html" xlink:title="java.lang.classfile.AnnotationValue.OfLong">
<text text-anchor="middle" x="380.14" y="-18" font-family="DejaVuSans" font-size="12.00" fill="#e76f00">OfLong</text>
</a>
</g>
</g>
<!-- java.lang.classfile.AnnotationValue.OfLong&#45;&gt;java.lang.classfile.AnnotationValue.OfConstant -->
<g id="edge4" class="edge">
<title>java.lang.classfile.AnnotationValue.OfLong&#45;&gt;java.lang.classfile.AnnotationValue.OfConstant</title>
<path fill="none" stroke="#999999" stroke-width="2" d="M408.27,-43.2C423.14,-54.08 441.59,-67.59 457.66,-79.35"/>
<polygon fill="#999999" stroke="#999999" stroke-width="2" points="465.33,-84.98 454.61,-82.7 462.97,-83.86 456.97,-79.47 457.26,-79.07 457.56,-78.66 463.56,-83.06 459.92,-75.44 465.33,-84.98"/>
</g>
<!-- java.lang.classfile.AnnotationValue.OfInteger -->
<g id="node6" class="node">
<title>java.lang.classfile.AnnotationValue.OfInteger</title>
<g id="a_node6"><a xlink:href="../../../java/lang/classfile/AnnotationValue.OfInteger.html" xlink:title="java.lang.classfile.AnnotationValue.OfInteger">
<text text-anchor="middle" x="495.14" y="-18" font-family="DejaVuSans" font-size="12.00" fill="#e76f00">OfInteger</text>
</a>
</g>
</g>
<!-- java.lang.classfile.AnnotationValue.OfInteger&#45;&gt;java.lang.classfile.AnnotationValue.OfConstant -->
<g id="edge5" class="edge">
<title>java.lang.classfile.AnnotationValue.OfInteger&#45;&gt;java.lang.classfile.AnnotationValue.OfConstant</title>
<path fill="none" stroke="#999999" stroke-width="2" d="M495.14,-42.98C495.14,-52.32 495.14,-63.63 495.14,-74.12"/>
<polygon fill="#999999" stroke="#999999" stroke-width="2" points="495.14,-83.88 490.64,-73.88 494.64,-81.31 494.64,-73.88 495.14,-73.88 495.64,-73.88 495.64,-81.31 499.64,-73.88 495.14,-83.88"/>
</g>
<!-- java.lang.classfile.AnnotationValue.OfShort -->
<g id="node7" class="node">
<title>java.lang.classfile.AnnotationValue.OfShort</title>
<g id="a_node7"><a xlink:href="../../../java/lang/classfile/AnnotationValue.OfShort.html" xlink:title="java.lang.classfile.AnnotationValue.OfShort">
<text text-anchor="middle" x="611.14" y="-18" font-family="DejaVuSans" font-size="12.00" fill="#e76f00">OfShort</text>
</a>
</g>
</g>
<!-- java.lang.classfile.AnnotationValue.OfShort&#45;&gt;java.lang.classfile.AnnotationValue.OfConstant -->
<g id="edge6" class="edge">
<title>java.lang.classfile.AnnotationValue.OfShort&#45;&gt;java.lang.classfile.AnnotationValue.OfConstant</title>
<path fill="none" stroke="#999999" stroke-width="2" d="M582.76,-43.2C567.77,-54.08 549.16,-67.59 532.95,-79.35"/>
<polygon fill="#999999" stroke="#999999" stroke-width="2" points="525.2,-84.98 530.65,-75.47 526.98,-83.07 533,-78.7 533.29,-79.11 533.58,-79.51 527.57,-83.88 535.93,-82.75 525.2,-84.98"/>
</g>
<!-- java.lang.classfile.AnnotationValue.OfCharacter -->
<g id="node8" class="node">
<title>java.lang.classfile.AnnotationValue.OfCharacter</title>
<g id="a_node8"><a xlink:href="../../../java/lang/classfile/AnnotationValue.OfCharacter.html" xlink:title="java.lang.classfile.AnnotationValue.OfCharacter">
<text text-anchor="middle" x="735.14" y="-18" font-family="DejaVuSans" font-size="12.00" fill="#e76f00">OfCharacter</text>
</a>
</g>
</g>
<!-- java.lang.classfile.AnnotationValue.OfCharacter&#45;&gt;java.lang.classfile.AnnotationValue.OfConstant -->
<g id="edge7" class="edge">
<title>java.lang.classfile.AnnotationValue.OfCharacter&#45;&gt;java.lang.classfile.AnnotationValue.OfConstant</title>
<path fill="none" stroke="#999999" stroke-width="2" d="M684.54,-40.35C646.69,-53.63 594.82,-71.83 554.92,-85.83"/>
<polygon fill="#999999" stroke="#999999" stroke-width="2" points="545.52,-89.12 553.47,-81.57 547.78,-87.8 554.79,-85.34 554.96,-85.81 555.12,-86.29 548.11,-88.75 556.45,-90.06 545.52,-89.12"/>
</g>
<!-- java.lang.classfile.AnnotationValue.OfByte -->
<g id="node9" class="node">
<title>java.lang.classfile.AnnotationValue.OfByte</title>
<g id="a_node9"><a xlink:href="../../../java/lang/classfile/AnnotationValue.OfByte.html" xlink:title="java.lang.classfile.AnnotationValue.OfByte">
<text text-anchor="middle" x="857.14" y="-18" font-family="DejaVuSans" font-size="12.00" fill="#e76f00">OfByte</text>
</a>
</g>
</g>
<!-- java.lang.classfile.AnnotationValue.OfByte&#45;&gt;java.lang.classfile.AnnotationValue.OfConstant -->
<g id="edge8" class="edge">
<title>java.lang.classfile.AnnotationValue.OfByte&#45;&gt;java.lang.classfile.AnnotationValue.OfConstant</title>
<path fill="none" stroke="#999999" stroke-width="2" d="M822.36,-37.07C816.35,-39.3 810.11,-41.44 804.14,-43.2 719.06,-68.3 617.96,-87.09 555.16,-97.52"/>
<polygon fill="#999999" stroke="#999999" stroke-width="2" points="545.53,-99.1 554.67,-93.04 547.98,-98.19 555.32,-96.98 555.4,-97.48 555.48,-97.97 548.14,-99.17 556.13,-101.92 545.53,-99.1"/>
</g>
<!-- java.lang.classfile.AnnotationValue.OfBoolean -->
<g id="node10" class="node">
<title>java.lang.classfile.AnnotationValue.OfBoolean</title>
<g id="a_node10"><a xlink:href="../../../java/lang/classfile/AnnotationValue.OfBoolean.html" xlink:title="java.lang.classfile.AnnotationValue.OfBoolean">
<text text-anchor="middle" x="973.14" y="-18" font-family="DejaVuSans" font-size="12.00" fill="#e76f00">OfBoolean</text>
</a>
</g>
</g>
<!-- java.lang.classfile.AnnotationValue.OfBoolean&#45;&gt;java.lang.classfile.AnnotationValue.OfConstant -->
<g id="edge9" class="edge">
<title>java.lang.classfile.AnnotationValue.OfBoolean&#45;&gt;java.lang.classfile.AnnotationValue.OfConstant</title>
<path fill="none" stroke="#999999" stroke-width="2" d="M927.63,-38.45C921.78,-40.2 915.85,-41.84 910.14,-43.2 785.67,-72.88 636.76,-91.76 555.46,-100.7"/>
<polygon fill="#999999" stroke="#999999" stroke-width="2" points="545.67,-101.76 555.13,-96.21 548.16,-100.98 555.56,-100.18 555.61,-100.68 555.66,-101.18 548.27,-101.98 556.1,-105.15 545.67,-101.76"/>
</g>
</g>
</svg>
