<?xml version="1.0" encoding="UTF-8" standalone="no"?>
<!DOCTYPE svg PUBLIC "-//W3C//DTD SVG 1.1//EN"
 "http://www.w3.org/Graphics/SVG/1.1/DTD/svg11.dtd">
<!-- Generated by graphviz version 9.0.0 (20230911.1827)
 -->
<!-- Title: G Pages: 1 -->
<svg width="1027pt" height="224pt"
 viewBox="0.00 0.00 1026.67 223.60" xmlns="http://www.w3.org/2000/svg" xmlns:xlink="http://www.w3.org/1999/xlink">
<g id="graph0" class="graph" transform="scale(1 1) rotate(0) translate(4 219.6)">
<title>G</title>
<polygon fill="white" stroke="none" points="-4,4 -4,-219.6 1022.67,-219.6 1022.67,4 -4,4"/>
<!-- java.lang.classfile.AnnotationValue.OfAnnotation -->
<g id="node1" class="node">
<title>java.lang.classfile.AnnotationValue.OfAnnotation</title>
<g id="a_node1"><a xlink:href="../../../java/lang/classfile/AnnotationValue.OfAnnotation.html" xlink:title="java.lang.classfile.AnnotationValue.OfAnnotation">
<text text-anchor="middle" x="245.14" y="-104.2" font-family="DejaVuSans" font-size="12.00" fill="#e76f00">OfAnnotation</text>
</a>
</g>
</g>
<!-- java.lang.classfile.AnnotationValue -->
<g id="node2" class="node">
<title>java.lang.classfile.AnnotationValue</title>
<g id="a_node2"><a xlink:href="../../../java/lang/classfile/AnnotationValue.html" xlink:title="java.lang.classfile.AnnotationValue">
<text text-anchor="middle" x="495.14" y="-190.4" font-family="DejaVuSans" font-size="12.00" fill="#e76f00">AnnotationValue</text>
</a>
</g>
</g>
<!-- java.lang.classfile.AnnotationValue.OfAnnotation&#45;&gt;java.lang.classfile.AnnotationValue -->
<g id="edge1" class="edge">
<title>java.lang.classfile.AnnotationValue.OfAnnotation&#45;&gt;java.lang.classfile.AnnotationValue</title>
<path fill="none" stroke="#999999" stroke-width="2" d="M299.08,-126.97C335.19,-139.13 383.15,-155.28 422.6,-168.57"/>
<polygon fill="#999999" stroke="#999999" stroke-width="2" points="431.97,-171.72 421.05,-172.8 429.38,-171.38 422.33,-169 422.49,-168.53 422.65,-168.06 429.7,-170.43 423.92,-164.27 431.97,-171.72"/>
</g>
<!-- java.lang.classfile.AnnotationValue.OfArray -->
<g id="node3" class="node">
<title>java.lang.classfile.AnnotationValue.OfArray</title>
<g id="a_node3"><a xlink:href="../../../java/lang/classfile/AnnotationValue.OfArray.html" xlink:title="java.lang.classfile.AnnotationValue.OfArray">
<text text-anchor="middle" x="373.14" y="-104.2" font-family="DejaVuSans" font-size="12.00" fill="#e76f00">OfArray</text>
</a>
</g>
</g>
<!-- java.lang.classfile.AnnotationValue.OfArray&#45;&gt;java.lang.classfile.AnnotationValue -->
<g id="edge2" class="edge">
<title>java.lang.classfile.AnnotationValue.OfArray&#45;&gt;java.lang.classfile.AnnotationValue</title>
<path fill="none" stroke="#999999" stroke-width="2" d="M402.99,-129.4C418.76,-140.28 438.33,-153.79 455.38,-165.55"/>
<polygon fill="#999999" stroke="#999999" stroke-width="2" points="463.6,-171.23 452.81,-169.25 461.21,-170.19 455.08,-165.96 455.37,-165.55 455.65,-165.14 461.77,-169.36 457.93,-161.85 463.6,-171.23"/>
</g>
<!-- java.lang.classfile.AnnotationValue.OfConstant -->
<g id="node4" class="node">
<title>java.lang.classfile.AnnotationValue.OfConstant</title>
<g id="a_node4"><a xlink:href="../../../java/lang/classfile/AnnotationValue.OfConstant.html" xlink:title="java.lang.classfile.AnnotationValue.OfConstant">
<text text-anchor="middle" x="495.14" y="-104.2" font-family="DejaVuSans" font-size="12.00" fill="#e76f00">OfConstant</text>
</a>
</g>
</g>
<!-- java.lang.classfile.AnnotationValue.OfConstant&#45;&gt;java.lang.classfile.AnnotationValue -->
<g id="edge3" class="edge">
<title>java.lang.classfile.AnnotationValue.OfConstant&#45;&gt;java.lang.classfile.AnnotationValue</title>
<path fill="none" stroke="#999999" stroke-width="2" d="M495.14,-129.18C495.14,-138.52 495.14,-149.83 495.14,-160.32"/>
<polygon fill="#999999" stroke="#999999" stroke-width="2" points="495.14,-170.08 490.64,-160.08 494.64,-167.51 494.64,-160.08 495.14,-160.08 495.64,-160.08 495.64,-167.51 499.64,-160.08 495.14,-170.08"/>
</g>
<!-- java.lang.classfile.AnnotationValue.OfString -->
<g id="node5" class="node">
<title>java.lang.classfile.AnnotationValue.OfString</title>
<g id="a_node5"><a xlink:href="../../../java/lang/classfile/AnnotationValue.OfString.html" xlink:title="java.lang.classfile.AnnotationValue.OfString">
<text text-anchor="middle" x="39.14" y="-18" font-family="DejaVuSans" font-size="12.00" fill="#e76f00">OfString</text>
</a>
</g>
</g>
<!-- java.lang.classfile.AnnotationValue.OfString&#45;&gt;java.lang.classfile.AnnotationValue.OfConstant -->
<g id="edge4" class="edge">
<title>java.lang.classfile.AnnotationValue.OfString&#45;&gt;java.lang.classfile.AnnotationValue.OfConstant</title>
<path fill="none" stroke="#999999" stroke-width="2" d="M78.11,-37.71C84.41,-39.78 90.91,-41.71 97.14,-43.2 241.84,-77.85 283.8,-54.36 429.14,-86.2 431.16,-86.64 433.2,-87.12 435.26,-87.62"/>
<polygon fill="#999999" stroke="#999999" stroke-width="2" points="444.74,-90.12 433.93,-91.92 442.14,-89.95 434.95,-88.05 435.07,-87.57 435.2,-87.09 442.39,-88.99 436.22,-83.22 444.74,-90.12"/>
</g>
<!-- java.lang.classfile.AnnotationValue.OfDouble -->
<g id="node6" class="node">
<title>java.lang.classfile.AnnotationValue.OfDouble</title>
<g id="a_node6"><a xlink:href="../../../java/lang/classfile/AnnotationValue.OfDouble.html" xlink:title="java.lang.classfile.AnnotationValue.OfDouble">
<text text-anchor="middle" x="157.14" y="-18" font-family="DejaVuSans" font-size="12.00" fill="#e76f00">OfDouble</text>
</a>
</g>
</g>
<!-- java.lang.classfile.AnnotationValue.OfDouble&#45;&gt;java.lang.classfile.AnnotationValue.OfConstant -->
<g id="edge5" class="edge">
<title>java.lang.classfile.AnnotationValue.OfDouble&#45;&gt;java.lang.classfile.AnnotationValue.OfConstant</title>
<path fill="none" stroke="#999999" stroke-width="2" d="M199.59,-37.69C205.78,-39.67 212.1,-41.57 218.14,-43.2 310.55,-68.11 336.45,-62.36 429.14,-86.2 431.14,-86.71 433.17,-87.25 435.21,-87.81"/>
<polygon fill="#999999" stroke="#999999" stroke-width="2" points="444.66,-90.49 433.81,-92.09 442.06,-90.27 434.9,-88.24 435.04,-87.76 435.17,-87.28 442.33,-89.31 436.27,-83.43 444.66,-90.49"/>
</g>
<!-- java.lang.classfile.AnnotationValue.OfFloat -->
<g id="node7" class="node">
<title>java.lang.classfile.AnnotationValue.OfFloat</title>
<g id="a_node7"><a xlink:href="../../../java/lang/classfile/AnnotationValue.OfFloat.html" xlink:title="java.lang.classfile.AnnotationValue.OfFloat">
<text text-anchor="middle" x="272.14" y="-18" font-family="DejaVuSans" font-size="12.00" fill="#e76f00">OfFloat</text>
</a>
</g>
</g>
<!-- java.lang.classfile.AnnotationValue.OfFloat&#45;&gt;java.lang.classfile.AnnotationValue.OfConstant -->
<g id="edge6" class="edge">
<title>java.lang.classfile.AnnotationValue.OfFloat&#45;&gt;java.lang.classfile.AnnotationValue.OfConstant</title>
<path fill="none" stroke="#999999" stroke-width="2" d="M308.15,-36.36C314.16,-38.65 320.32,-41 326.14,-43.2 362.43,-56.95 403.15,-72.28 435.52,-84.44"/>
<polygon fill="#999999" stroke="#999999" stroke-width="2" points="444.76,-87.91 433.82,-88.6 442.18,-87.47 435.22,-84.86 435.4,-84.39 435.57,-83.92 442.54,-86.54 436.98,-80.18 444.76,-87.91"/>
</g>
<!-- java.lang.classfile.AnnotationValue.OfLong -->
<g id="node8" class="node">
<title>java.lang.classfile.AnnotationValue.OfLong</title>
<g id="a_node8"><a xlink:href="../../../java/lang/classfile/AnnotationValue.OfLong.html" xlink:title="java.lang.classfile.AnnotationValue.OfLong">
<text text-anchor="middle" x="380.14" y="-18" font-family="DejaVuSans" font-size="12.00" fill="#e76f00">OfLong</text>
</a>
</g>
</g>
<!-- java.lang.classfile.AnnotationValue.OfLong&#45;&gt;java.lang.classfile.AnnotationValue.OfConstant -->
<g id="edge7" class="edge">
<title>java.lang.classfile.AnnotationValue.OfLong&#45;&gt;java.lang.classfile.AnnotationValue.OfConstant</title>
<path fill="none" stroke="#999999" stroke-width="2" d="M408.27,-43.2C423.14,-54.08 441.59,-67.59 457.66,-79.35"/>
<polygon fill="#999999" stroke="#999999" stroke-width="2" points="465.33,-84.98 454.61,-82.7 462.97,-83.86 456.97,-79.47 457.26,-79.07 457.56,-78.66 463.56,-83.06 459.92,-75.44 465.33,-84.98"/>
</g>
<!-- java.lang.classfile.AnnotationValue.OfInteger -->
<g id="node9" class="node">
<title>java.lang.classfile.AnnotationValue.OfInteger</title>
<g id="a_node9"><a xlink:href="../../../java/lang/classfile/AnnotationValue.OfInteger.html" xlink:title="java.lang.classfile.AnnotationValue.OfInteger">
<text text-anchor="middle" x="495.14" y="-18" font-family="DejaVuSans" font-size="12.00" fill="#e76f00">OfInteger</text>
</a>
</g>
</g>
<!-- java.lang.classfile.AnnotationValue.OfInteger&#45;&gt;java.lang.classfile.AnnotationValue.OfConstant -->
<g id="edge8" class="edge">
<title>java.lang.classfile.AnnotationValue.OfInteger&#45;&gt;java.lang.classfile.AnnotationValue.OfConstant</title>
<path fill="none" stroke="#999999" stroke-width="2" d="M495.14,-42.98C495.14,-52.32 495.14,-63.63 495.14,-74.12"/>
<polygon fill="#999999" stroke="#999999" stroke-width="2" points="495.14,-83.88 490.64,-73.88 494.64,-81.31 494.64,-73.88 495.14,-73.88 495.64,-73.88 495.64,-81.31 499.64,-73.88 495.14,-83.88"/>
</g>
<!-- java.lang.classfile.AnnotationValue.OfShort -->
<g id="node10" class="node">
<title>java.lang.classfile.AnnotationValue.OfShort</title>
<g id="a_node10"><a xlink:href="../../../java/lang/classfile/AnnotationValue.OfShort.html" xlink:title="java.lang.classfile.AnnotationValue.OfShort">
<text text-anchor="middle" x="611.14" y="-18" font-family="DejaVuSans" font-size="12.00" fill="#e76f00">OfShort</text>
</a>
</g>
</g>
<!-- java.lang.classfile.AnnotationValue.OfShort&#45;&gt;java.lang.classfile.AnnotationValue.OfConstant -->
<g id="edge9" class="edge">
<title>java.lang.classfile.AnnotationValue.OfShort&#45;&gt;java.lang.classfile.AnnotationValue.OfConstant</title>
<path fill="none" stroke="#999999" stroke-width="2" d="M582.76,-43.2C567.77,-54.08 549.16,-67.59 532.95,-79.35"/>
<polygon fill="#999999" stroke="#999999" stroke-width="2" points="525.2,-84.98 530.65,-75.47 526.98,-83.07 533,-78.7 533.29,-79.11 533.58,-79.51 527.57,-83.88 535.93,-82.75 525.2,-84.98"/>
</g>
<!-- java.lang.classfile.AnnotationValue.OfCharacter -->
<g id="node11" class="node">
<title>java.lang.classfile.AnnotationValue.OfCharacter</title>
<g id="a_node11"><a xlink:href="../../../java/lang/classfile/AnnotationValue.OfCharacter.html" xlink:title="java.lang.classfile.AnnotationValue.OfCharacter">
<text text-anchor="middle" x="735.14" y="-18" font-family="DejaVuSans" font-size="12.00" fill="#e76f00">OfCharacter</text>
</a>
</g>
</g>
<!-- java.lang.classfile.AnnotationValue.OfCharacter&#45;&gt;java.lang.classfile.AnnotationValue.OfConstant -->
<g id="edge10" class="edge">
<title>java.lang.classfile.AnnotationValue.OfCharacter&#45;&gt;java.lang.classfile.AnnotationValue.OfConstant</title>
<path fill="none" stroke="#999999" stroke-width="2" d="M684.54,-40.35C646.69,-53.63 594.82,-71.83 554.92,-85.83"/>
<polygon fill="#999999" stroke="#999999" stroke-width="2" points="545.52,-89.12 553.47,-81.57 547.78,-87.8 554.79,-85.34 554.96,-85.81 555.12,-86.29 548.11,-88.75 556.45,-90.06 545.52,-89.12"/>
</g>
<!-- java.lang.classfile.AnnotationValue.OfByte -->
<g id="node12" class="node">
<title>java.lang.classfile.AnnotationValue.OfByte</title>
<g id="a_node12"><a xlink:href="../../../java/lang/classfile/AnnotationValue.OfByte.html" xlink:title="java.lang.classfile.AnnotationValue.OfByte">
<text text-anchor="middle" x="857.14" y="-18" font-family="DejaVuSans" font-size="12.00" fill="#e76f00">OfByte</text>
</a>
</g>
</g>
<!-- java.lang.classfile.AnnotationValue.OfByte&#45;&gt;java.lang.classfile.AnnotationValue.OfConstant -->
<g id="edge11" class="edge">
<title>java.lang.classfile.AnnotationValue.OfByte&#45;&gt;java.lang.classfile.AnnotationValue.OfConstant</title>
<path fill="none" stroke="#999999" stroke-width="2" d="M822.4,-37.21C816.38,-39.42 810.13,-41.52 804.14,-43.2 698.52,-72.76 667.71,-60.25 561.14,-86.2 559.14,-86.69 557.1,-87.2 555.06,-87.74"/>
<polygon fill="#999999" stroke="#999999" stroke-width="2" points="545.59,-90.36 554.03,-83.35 547.93,-89.19 555.1,-87.21 555.23,-87.69 555.36,-88.17 548.2,-90.16 556.43,-92.03 545.59,-90.36"/>
</g>
<!-- java.lang.classfile.AnnotationValue.OfBoolean -->
<g id="node13" class="node">
<title>java.lang.classfile.AnnotationValue.OfBoolean</title>
<g id="a_node13"><a xlink:href="../../../java/lang/classfile/AnnotationValue.OfBoolean.html" xlink:title="java.lang.classfile.AnnotationValue.OfBoolean">
<text text-anchor="middle" x="973.14" y="-18" font-family="DejaVuSans" font-size="12.00" fill="#e76f00">OfBoolean</text>
</a>
</g>
</g>
<!-- java.lang.classfile.AnnotationValue.OfBoolean&#45;&gt;java.lang.classfile.AnnotationValue.OfConstant -->
<g id="edge12" class="edge">
<title>java.lang.classfile.AnnotationValue.OfBoolean&#45;&gt;java.lang.classfile.AnnotationValue.OfConstant</title>
<path fill="none" stroke="#999999" stroke-width="2" d="M927.67,-38.62C921.82,-40.34 915.87,-41.92 910.14,-43.2 757.6,-77.2 713.91,-53.23 561.14,-86.2 559.12,-86.64 557.08,-87.1 555.02,-87.6"/>
<polygon fill="#999999" stroke="#999999" stroke-width="2" points="545.53,-90.09 554.06,-83.2 547.88,-88.96 555.08,-87.07 555.21,-87.55 555.33,-88.04 548.14,-89.93 556.35,-91.91 545.53,-90.09"/>
</g>
<!-- java.lang.classfile.AnnotationValue.OfClass -->
<g id="node14" class="node">
<title>java.lang.classfile.AnnotationValue.OfClass</title>
<g id="a_node14"><a xlink:href="../../../java/lang/classfile/AnnotationValue.OfClass.html" xlink:title="java.lang.classfile.AnnotationValue.OfClass">
<text text-anchor="middle" x="616.14" y="-104.2" font-family="DejaVuSans" font-size="12.00" fill="#e76f00">OfClass</text>
</a>
</g>
</g>
<!-- java.lang.classfile.AnnotationValue.OfClass&#45;&gt;java.lang.classfile.AnnotationValue -->
<g id="edge13" class="edge">
<title>java.lang.classfile.AnnotationValue.OfClass&#45;&gt;java.lang.classfile.AnnotationValue</title>
<path fill="none" stroke="#999999" stroke-width="2" d="M586.54,-129.4C570.9,-140.28 551.49,-153.79 534.58,-165.55"/>
<polygon fill="#999999" stroke="#999999" stroke-width="2" points="526.44,-171.22 532.07,-161.82 528.25,-169.35 534.36,-165.1 534.64,-165.51 534.93,-165.92 528.83,-170.17 537.21,-169.2 526.44,-171.22"/>
</g>
<!-- java.lang.classfile.AnnotationValue.OfEnum -->
<g id="node15" class="node">
<title>java.lang.classfile.AnnotationValue.OfEnum</title>
<g id="a_node15"><a xlink:href="../../../java/lang/classfile/AnnotationValue.OfEnum.html" xlink:title="java.lang.classfile.AnnotationValue.OfEnum">
<text text-anchor="middle" x="727.14" y="-104.2" font-family="DejaVuSans" font-size="12.00" fill="#e76f00">OfEnum</text>
</a>
</g>
</g>
<!-- java.lang.classfile.AnnotationValue.OfEnum&#45;&gt;java.lang.classfile.AnnotationValue -->
<g id="edge14" class="edge">
<title>java.lang.classfile.AnnotationValue.OfEnum&#45;&gt;java.lang.classfile.AnnotationValue</title>
<path fill="none" stroke="#999999" stroke-width="2" d="M688.89,-122.9C682.95,-125.08 676.88,-127.31 671.14,-129.4 635.8,-142.29 596.43,-156.52 563.9,-168.26"/>
<polygon fill="#999999" stroke="#999999" stroke-width="2" points="554.53,-171.63 562.41,-164.01 556.77,-170.29 563.77,-167.77 563.94,-168.24 564.11,-168.71 557.11,-171.23 565.47,-172.47 554.53,-171.63"/>
</g>
</g>
</svg>
